<svg id="Layer_1" data-name="Layer 1" xmlns="http://www.w3.org/2000/svg" viewBox="0 0 165.31 203.96"><defs><style>.cls-1{opacity:0.4;}.cls-2{fill:#0ed80e;}.cls-3{fill:#fff;}.cls-4{opacity:0.2;}.cls-5{opacity:0.42;}.cls-6{fill:#ed1c24;}.cls-7{fill:#e6e6e6;}</style></defs><title>arrows</title><g class="cls-1"><path class="cls-2" d="M157.31,106.67a.59.59,0,0,1-.53-.25c-.13-.26-.15-.29,1.22-2.51.63-1,1.53-2.48,2.77-4.59l14.55-22.23L159.57,50.44,158.83,49c-1.35-2.65-1.75-3.51-1.34-3.92a.94.94,0,0,1,.62-.23,1.22,1.22,0,0,1,.73.27c.89.67,3.68,2.6,6.37,4.47,2.19,1.52,4.39,3,5.63,3.93.19.14,19.94,14.7,26.78,19.59,2.6,1.86,3.87,3.14,3.88,3.93,0,.54-.65,1-1.49,1.66-9.47,7.1-24.6,16.67-24.75,16.77-1.7,1-5,3.16-8.13,5.23-3.87,2.54-8.7,5.69-9.35,5.91A1.49,1.49,0,0,1,157.31,106.67Z" transform="translate(-36.69 -44.32)"/><path class="cls-3" d="M158.11,45.32h0a.74.74,0,0,1,.43.17c.9.68,3.57,2.53,6.4,4.49,2.15,1.49,4.38,3,5.6,3.91.2.15,20,14.71,26.8,19.6,3.3,2.36,3.66,3.25,3.67,3.53s-.68.8-1.29,1.25C190.26,85.36,175.15,94.92,175,95c-1.71,1-5,3.17-8.15,5.24-3.81,2.49-8.54,5.59-9.24,5.86a1,1,0,0,1-.31.06h-.05c.14-.32.59-1,1.17-2s1.53-2.49,2.75-4.56l14.39-22,.34-.52-.32-.54L160,50.21l-.74-1.47a12.59,12.59,0,0,1-1.43-3.33.45.45,0,0,1,.27-.09m0-1a1.43,1.43,0,0,0-1,.37c-.8.79,0,2,2,6l15.59,26.38-14.39,22c-4,6.8-4.4,6.8-4,7.6a1.07,1.07,0,0,0,1,.51,2,2,0,0,0,.63-.11c1.25-.42,13.59-8.79,17.59-11.19,0,0,15.19-9.59,24.78-16.79,2-1.54,3.2-2.4-2.4-6.4-6.92-4.94-26.78-19.59-26.78-19.59-2.8-2-10.39-7.2-12-8.39a1.7,1.7,0,0,0-1-.37Z" transform="translate(-36.69 -44.32)"/></g><g class="cls-4"><path class="cls-2" d="M128.93,106.67a.59.59,0,0,1-.53-.25c-.13-.26-.15-.29,1.22-2.51.63-1,1.53-2.48,2.77-4.59l14.55-22.23L131.19,50.44,130.45,49c-1.35-2.65-1.75-3.51-1.34-3.92a.93.93,0,0,1,.62-.23,1.22,1.22,0,0,1,.73.27c.9.67,3.68,2.61,6.38,4.48,2.19,1.52,4.38,3,5.62,3.93.19.14,19.94,14.7,26.78,19.59,2.6,1.86,3.87,3.14,3.88,3.93,0,.54-.65,1-1.49,1.66-9.47,7.1-24.6,16.67-24.75,16.77-1.7,1-5,3.16-8.13,5.23-3.87,2.54-8.7,5.69-9.35,5.91A1.49,1.49,0,0,1,128.93,106.67Z" transform="translate(-36.69 -44.32)"/><path class="cls-3" d="M129.73,45.32h0a.74.74,0,0,1,.43.17c.9.68,3.57,2.53,6.4,4.49,2.15,1.49,4.38,3,5.6,3.91.2.15,20,14.71,26.8,19.6,3.3,2.36,3.66,3.25,3.67,3.53s-.68.8-1.29,1.25c-9.45,7.09-24.57,16.65-24.7,16.73-1.71,1-5,3.17-8.15,5.24-3.81,2.49-8.54,5.59-9.24,5.86a1,1,0,0,1-.31.06h-.05c.14-.32.59-1,1.17-2s1.53-2.49,2.75-4.56l14.39-22,.34-.52-.32-.54L131.64,50.21l-.74-1.47a12.59,12.59,0,0,1-1.43-3.33.45.45,0,0,1,.27-.09m0-1a1.43,1.43,0,0,0-1,.37c-.8.79,0,2,2,6l15.59,26.38L132,99.06c-4,6.8-4.4,6.8-4,7.6a1.07,1.07,0,0,0,1,.51,2,2,0,0,0,.63-.11c1.25-.42,13.59-8.79,17.59-11.19,0,0,15.19-9.59,24.78-16.79,2-1.54,3.2-2.4-2.4-6.4-6.92-4.94-26.78-19.59-26.78-19.59-2.8-2-10.39-7.2-12-8.39a1.7,1.7,0,0,0-1-.37Z" transform="translate(-36.69 -44.32)"/></g><path class="cls-2" d="M99,106.67a.59.59,0,0,1-.53-.25c-.13-.26-.15-.29,1.22-2.51.63-1,1.53-2.48,2.77-4.59L117,77.09,101.21,50.44,100.47,49c-1.35-2.65-1.75-3.51-1.34-3.92a.94.94,0,0,1,.62-.23,1.22,1.22,0,0,1,.73.27c.9.67,3.68,2.61,6.38,4.48,2.19,1.52,4.38,3,5.62,3.93.19.14,19.94,14.7,26.78,19.59,2.6,1.86,3.87,3.14,3.88,3.93,0,.54-.65,1-1.49,1.66-9.47,7.1-24.6,16.67-24.75,16.77-1.7,1-5,3.16-8.13,5.23-3.87,2.54-8.7,5.69-9.35,5.91A1.49,1.49,0,0,1,99,106.67Z" transform="translate(-36.69 -44.32)"/><path class="cls-3" d="M99.75,45.32h0a.74.74,0,0,1,.43.17c.9.68,3.57,2.53,6.4,4.49,2.15,1.49,4.38,3,5.6,3.91.2.15,20,14.71,26.8,19.6,3.3,2.36,3.66,3.25,3.67,3.53s-.68.8-1.29,1.25c-9.45,7.09-24.57,16.65-24.7,16.73-1.71,1-5,3.17-8.15,5.24-3.81,2.49-8.54,5.59-9.24,5.86a1,1,0,0,1-.31.06H98.9c.14-.32.59-1,1.17-2s1.53-2.49,2.75-4.56l14.39-22,.34-.52-.32-.54L101.65,50.21l-.74-1.47a12.6,12.6,0,0,1-1.43-3.33.45.45,0,0,1,.27-.09m0-1a1.43,1.43,0,0,0-1,.37c-.8.79,0,2,2,6l15.59,26.38L102,99.06c-4,6.8-4.4,6.8-4,7.6a1.07,1.07,0,0,0,1,.51,2,2,0,0,0,.63-.11c1.25-.42,13.59-8.79,17.59-11.19,0,0,15.19-9.59,24.78-16.79,2-1.54,3.2-2.4-2.4-6.4-6.92-4.94-26.78-19.59-26.78-19.59-2.8-2-10.39-7.2-12-8.39a1.7,1.7,0,0,0-1-.37Z" transform="translate(-36.69 -44.32)"/><g class="cls-5"><path class="cls-2" d="M68.17,106.67a.59.59,0,0,1-.53-.25c-.13-.26-.15-.29,1.22-2.51.63-1,1.53-2.48,2.77-4.59L86.17,77.09,70.43,50.44,69.69,49c-1.35-2.65-1.75-3.51-1.34-3.92a.94.94,0,0,1,.62-.23,1.22,1.22,0,0,1,.73.27c.89.67,3.68,2.6,6.37,4.47,2.19,1.52,4.39,3,5.63,3.93.19.14,19.94,14.7,26.78,19.59,2.6,1.86,3.87,3.14,3.88,3.93,0,.54-.65,1-1.49,1.66-9.47,7.1-24.6,16.67-24.75,16.77-1.7,1-5,3.16-8.13,5.23-3.87,2.54-8.7,5.69-9.35,5.91A1.49,1.49,0,0,1,68.17,106.67Z" transform="translate(-36.69 -44.32)"/><path class="cls-3" d="M69,45.32h0a.74.74,0,0,1,.43.17c.9.68,3.57,2.53,6.4,4.49,2.15,1.49,4.38,3,5.6,3.91.2.15,20,14.71,26.8,19.6,3.3,2.36,3.66,3.25,3.67,3.53s-.68.8-1.29,1.25C101.12,85.36,86,94.92,85.87,95c-1.71,1-5,3.17-8.15,5.24-3.81,2.49-8.54,5.59-9.24,5.86a1,1,0,0,1-.31.06h-.05c.14-.32.59-1,1.17-2s1.53-2.49,2.75-4.56l14.39-22,.34-.52-.32-.54L70.87,50.21l-.74-1.47a12.6,12.6,0,0,1-1.43-3.33.45.45,0,0,1,.27-.09m0-1a1.43,1.43,0,0,0-1,.37c-.8.79,0,2,2,6L85.59,77.08l-14.39,22c-4,6.8-4.4,6.8-4,7.6a1.07,1.07,0,0,0,1,.51,2,2,0,0,0,.63-.11c1.25-.42,13.59-8.79,17.59-11.19,0,0,15.19-9.59,24.78-16.79,2-1.54,3.2-2.4-2.4-6.4C101.86,67.74,82,53.09,82,53.09c-2.8-2-10.39-7.2-12-8.39a1.7,1.7,0,0,0-1-.37Z" transform="translate(-36.69 -44.32)"/></g><g class="cls-4"><path class="cls-2" d="M37.79,106.67a.59.59,0,0,1-.53-.25c-.13-.26-.15-.29,1.22-2.51.63-1,1.53-2.48,2.77-4.59L55.79,77.09,40,50.44,39.3,49C38,46.32,37.55,45.46,38,45.05a.94.94,0,0,1,.62-.23,1.22,1.22,0,0,1,.73.27c.89.67,3.68,2.6,6.37,4.47,2.19,1.52,4.39,3,5.63,3.93.19.14,19.94,14.7,26.78,19.59C80.7,74.94,82,76.23,82,77c0,.54-.65,1-1.49,1.66C71,85.78,55.89,95.35,55.74,95.44c-1.7,1-5,3.16-8.13,5.23-3.87,2.54-8.7,5.69-9.35,5.91A1.49,1.49,0,0,1,37.79,106.67Z" transform="translate(-36.69 -44.32)"/><path class="cls-3" d="M38.59,45.32h0a.74.74,0,0,1,.43.17c.9.68,3.57,2.53,6.4,4.49,2.15,1.49,4.38,3,5.6,3.91.2.15,20,14.71,26.8,19.6,3.3,2.36,3.66,3.25,3.67,3.53s-.68.8-1.29,1.25C70.74,85.36,55.62,94.92,55.49,95c-1.71,1-5,3.17-8.15,5.24-3.81,2.49-8.54,5.59-9.24,5.86a1,1,0,0,1-.31.06h-.05c.14-.32.59-1,1.17-2s1.53-2.49,2.75-4.56L56,77.62l.34-.52-.32-.54L40.49,50.21l-.74-1.47a12.6,12.6,0,0,1-1.43-3.33.45.45,0,0,1,.27-.09m0-1a1.43,1.43,0,0,0-1,.37c-.8.79,0,2,2,6L55.21,77.08l-14.39,22c-4,6.8-4.4,6.8-4,7.6a1.07,1.07,0,0,0,1,.51,2,2,0,0,0,.63-.11C39.67,106.64,52,98.26,56,95.86c0,0,15.19-9.59,24.78-16.79,2-1.54,3.2-2.4-2.4-6.4-6.92-4.94-26.78-19.59-26.78-19.59-2.8-2-10.39-7.2-12-8.39a1.7,1.7,0,0,0-1-.37Z" transform="translate(-36.69 -44.32)"/></g><g class="cls-1"><path class="cls-6" d="M157.31,176.63a.59.59,0,0,1-.53-.25c-.13-.26-.15-.29,1.22-2.52.63-1,1.53-2.48,2.77-4.59L175.32,147l-15.75-26.65-.74-1.47c-1.35-2.65-1.75-3.51-1.34-3.92a.94.94,0,0,1,.62-.23,1.22,1.22,0,0,1,.73.27c.9.67,3.7,2.61,6.4,4.49,2.18,1.51,4.36,3,5.6,3.91.19.14,19.94,14.7,26.78,19.59,2.6,1.86,3.87,3.14,3.88,3.93,0,.54-.65,1-1.49,1.66-9.47,7.1-24.6,16.67-24.75,16.77-1.7,1-5,3.16-8.12,5.23-3.88,2.54-8.7,5.7-9.36,5.92A1.5,1.5,0,0,1,157.31,176.63Z" transform="translate(-36.69 -44.32)"/><path class="cls-3" d="M158.11,115.28a.74.74,0,0,1,.43.17c.9.68,3.57,2.53,6.4,4.49,2.15,1.49,4.38,3,5.6,3.91.2.15,20,14.71,26.8,19.6,3.3,2.36,3.66,3.25,3.67,3.53s-.68.8-1.29,1.25c-9.45,7.09-24.57,16.65-24.7,16.73-1.71,1-5,3.17-8.15,5.24-3.81,2.49-8.54,5.59-9.24,5.86a1,1,0,0,1-.31.06h-.05c.14-.32.59-1,1.17-2s1.53-2.49,2.75-4.56l14.39-22,.34-.52-.32-.54L160,120.17l-.74-1.47a12.59,12.59,0,0,1-1.43-3.33.45.45,0,0,1,.27-.09m0-1a1.43,1.43,0,0,0-1,.37c-.8.79,0,2,2,6L174.73,147l-14.39,22c-4,6.8-4.4,6.8-4,7.6a1.07,1.07,0,0,0,1,.51,2,2,0,0,0,.63-.11c1.25-.42,13.59-8.79,17.59-11.19,0,0,15.19-9.59,24.78-16.79,2-1.54,3.2-2.4-2.4-6.4C191,137.7,171.13,123,171.13,123c-2.8-2-10.39-7.2-12-8.39a1.7,1.7,0,0,0-1-.37Z" transform="translate(-36.69 -44.32)"/></g><g class="cls-4"><path class="cls-6" d="M128.93,176.63a.59.59,0,0,1-.53-.25c-.13-.26-.15-.29,1.22-2.51.63-1,1.53-2.48,2.77-4.59L146.94,147l-15.75-26.65-.74-1.47c-1.35-2.65-1.75-3.51-1.34-3.92a.93.93,0,0,1,.62-.23,1.22,1.22,0,0,1,.73.27c.9.67,3.7,2.62,6.41,4.5,2.18,1.51,4.35,3,5.59,3.9.19.14,19.94,14.7,26.78,19.59,2.6,1.86,3.87,3.14,3.88,3.93,0,.54-.65,1-1.49,1.66-9.47,7.1-24.6,16.67-24.75,16.77-1.7,1-5,3.16-8.12,5.23-3.88,2.54-8.7,5.7-9.36,5.92A1.5,1.5,0,0,1,128.93,176.63Z" transform="translate(-36.69 -44.32)"/><path class="cls-3" d="M129.73,115.28a.74.74,0,0,1,.43.17c.9.68,3.57,2.53,6.4,4.49,2.15,1.49,4.38,3,5.6,3.91.2.15,20,14.71,26.8,19.6,3.3,2.36,3.66,3.25,3.67,3.53s-.68.8-1.29,1.25c-9.45,7.09-24.57,16.65-24.7,16.73-1.71,1-5,3.17-8.15,5.24-3.81,2.49-8.54,5.59-9.24,5.86a1,1,0,0,1-.31.06h-.05c.14-.32.59-1,1.17-2s1.53-2.49,2.75-4.56l14.39-22,.34-.52-.32-.54-15.57-26.35-.74-1.47a12.59,12.59,0,0,1-1.43-3.33.45.45,0,0,1,.27-.09m0-1a1.43,1.43,0,0,0-1,.37c-.8.79,0,2,2,6L146.35,147,132,169c-4,6.8-4.4,6.8-4,7.6a1.07,1.07,0,0,0,1,.51,2,2,0,0,0,.63-.11c1.25-.42,13.59-8.79,17.59-11.19,0,0,15.19-9.59,24.78-16.79,2-1.54,3.2-2.4-2.4-6.4C162.62,137.7,142.75,123,142.75,123c-2.8-2-10.39-7.2-12-8.39a1.7,1.7,0,0,0-1-.37Z" transform="translate(-36.69 -44.32)"/></g><path class="cls-6" d="M98.95,176.63a.59.59,0,0,1-.53-.25c-.13-.26-.15-.29,1.22-2.51.63-1,1.53-2.48,2.77-4.59L117,147l-15.75-26.65-.74-1.47c-1.35-2.65-1.75-3.51-1.34-3.92a.94.94,0,0,1,.62-.23,1.22,1.22,0,0,1,.73.27c.9.67,3.7,2.62,6.41,4.5,2.18,1.51,4.35,3,5.59,3.9.19.14,19.94,14.7,26.78,19.59,2.6,1.86,3.87,3.14,3.88,3.93,0,.54-.65,1-1.49,1.66-9.47,7.1-24.6,16.67-24.75,16.77-1.7,1-5,3.16-8.12,5.23-3.88,2.54-8.7,5.7-9.36,5.92A1.5,1.5,0,0,1,98.95,176.63Z" transform="translate(-36.69 -44.32)"/><path class="cls-3" d="M99.75,115.28a.74.74,0,0,1,.43.17c.9.68,3.57,2.53,6.4,4.49,2.15,1.49,4.38,3,5.6,3.91.2.15,20,14.71,26.8,19.6,3.3,2.36,3.66,3.25,3.67,3.53s-.68.8-1.29,1.25c-9.45,7.09-24.57,16.65-24.7,16.73-1.71,1-5,3.17-8.15,5.24-3.81,2.49-8.54,5.59-9.24,5.86a1,1,0,0,1-.31.06H98.9c.14-.32.59-1,1.17-2s1.53-2.49,2.75-4.56l14.39-22,.34-.52-.32-.54-15.57-26.35-.74-1.47a12.6,12.6,0,0,1-1.43-3.33.45.45,0,0,1,.27-.09m0-1a1.43,1.43,0,0,0-1,.37c-.8.79,0,2,2,6L116.37,147,102,169c-4,6.8-4.4,6.8-4,7.6a1.07,1.07,0,0,0,1,.51,2,2,0,0,0,.63-.11c1.25-.42,13.59-8.79,17.59-11.19,0,0,15.19-9.59,24.78-16.79,2-1.54,3.2-2.4-2.4-6.4C132.64,137.7,112.77,123,112.77,123c-2.8-2-10.39-7.2-12-8.39a1.7,1.7,0,0,0-1-.37Z" transform="translate(-36.69 -44.32)"/><g class="cls-5"><path class="cls-6" d="M68.17,176.63a.59.59,0,0,1-.53-.25c-.13-.26-.15-.29,1.22-2.52.63-1,1.53-2.48,2.77-4.59L86.17,147,70.43,120.39l-.74-1.47c-1.35-2.65-1.75-3.51-1.34-3.92a.94.94,0,0,1,.62-.23,1.22,1.22,0,0,1,.73.27c.9.67,3.7,2.61,6.4,4.49,2.18,1.51,4.36,3,5.6,3.91.19.14,19.94,14.7,26.78,19.59,2.6,1.86,3.87,3.14,3.88,3.93,0,.54-.65,1-1.49,1.66-9.47,7.1-24.6,16.67-24.75,16.77-1.7,1-5,3.16-8.12,5.23-3.88,2.54-8.7,5.7-9.36,5.92A1.5,1.5,0,0,1,68.17,176.63Z" transform="translate(-36.69 -44.32)"/><path class="cls-3" d="M69,115.28a.74.74,0,0,1,.43.17c.9.68,3.57,2.53,6.4,4.49,2.15,1.49,4.38,3,5.6,3.91.2.15,20,14.71,26.8,19.6,3.3,2.36,3.66,3.25,3.67,3.53s-.68.8-1.29,1.25C101.12,155.32,86,164.88,85.87,165c-1.71,1-5,3.17-8.15,5.24-3.81,2.49-8.54,5.59-9.24,5.86a1,1,0,0,1-.31.06h-.05c.14-.32.59-1,1.17-2s1.53-2.49,2.75-4.56l14.39-22,.34-.52-.32-.54L70.87,120.17l-.74-1.47a12.6,12.6,0,0,1-1.43-3.33.45.45,0,0,1,.27-.09m0-1a1.43,1.43,0,0,0-1,.37c-.8.79,0,2,2,6L85.59,147,71.19,169c-4,6.8-4.4,6.8-4,7.6a1.07,1.07,0,0,0,1,.51,2,2,0,0,0,.63-.11c1.25-.42,13.59-8.79,17.59-11.19,0,0,15.19-9.59,24.78-16.79,2-1.54,3.2-2.4-2.4-6.4C101.86,137.7,82,123,82,123c-2.8-2-10.39-7.2-12-8.39a1.7,1.7,0,0,0-1-.37Z" transform="translate(-36.69 -44.32)"/></g><g class="cls-4"><path class="cls-6" d="M37.79,176.63a.59.59,0,0,1-.53-.25c-.13-.26-.15-.29,1.22-2.51.63-1,1.53-2.48,2.77-4.59L55.79,147,40,120.39l-.74-1.47C38,116.27,37.55,115.42,38,115a.94.94,0,0,1,.62-.23,1.22,1.22,0,0,1,.73.27c.9.67,3.7,2.61,6.4,4.49,2.18,1.51,4.36,3,5.6,3.91.19.14,19.94,14.7,26.78,19.59C80.7,144.9,82,146.18,82,147c0,.54-.65,1-1.49,1.66-9.47,7.1-24.6,16.67-24.75,16.77-1.7,1-5,3.16-8.12,5.23-3.88,2.54-8.7,5.7-9.36,5.92A1.5,1.5,0,0,1,37.79,176.63Z" transform="translate(-36.69 -44.32)"/><path class="cls-3" d="M38.59,115.28a.74.74,0,0,1,.43.17c.9.68,3.57,2.53,6.4,4.49,2.15,1.49,4.38,3,5.6,3.91.2.15,20,14.71,26.8,19.6,3.3,2.36,3.66,3.25,3.67,3.53s-.68.8-1.29,1.25c-9.45,7.09-24.57,16.65-24.7,16.73-1.71,1-5,3.17-8.15,5.24-3.81,2.49-8.54,5.59-9.24,5.86a1,1,0,0,1-.31.06h-.05c.14-.32.59-1,1.17-2s1.53-2.49,2.75-4.56l14.39-22,.34-.52-.32-.54L40.49,120.17l-.74-1.47a12.6,12.6,0,0,1-1.43-3.33.46.46,0,0,1,.27-.09m0-1a1.43,1.43,0,0,0-1,.37c-.8.79,0,2,2,6L55.21,147,40.81,169c-4,6.8-4.4,6.8-4,7.6a1.07,1.07,0,0,0,1,.51,2,2,0,0,0,.63-.11C39.67,176.6,52,168.22,56,165.82c0,0,15.19-9.59,24.78-16.79,2-1.54,3.2-2.4-2.4-6.4C71.47,137.7,51.61,123,51.61,123c-2.8-2-10.39-7.2-12-8.39a1.7,1.7,0,0,0-1-.37Z" transform="translate(-36.69 -44.32)"/></g><g class="cls-1"><path class="cls-7" d="M159.85,188.77l4.52,3.14c2.15,1.49,4.37,3,5.58,3.89.2.15,20,14.71,26.81,19.61a16,16,0,0,1,3.09,2.6c-.21.18-.49.39-.72.56-9.42,7.06-24.5,16.6-24.61,16.67-1.73,1-4.87,3.09-8.18,5.26-2,1.32-4.45,2.91-6.31,4.1.54-.89,1.21-2,2-3.4l14.36-21.95.68-1-.63-1.07L160.9,190.85l-.73-1.45-.32-.63m-1.74-3.34a1.43,1.43,0,0,0-1,.37c-.8.79,0,2,2,6l15.59,26.38-14.39,22c-4,6.8-4.4,6.8-4,7.6a1.07,1.07,0,0,0,1,.51,2,2,0,0,0,.63-.11c1.25-.42,13.59-8.79,17.59-11.19,0,0,15.19-9.59,24.78-16.79,2-1.54,3.2-2.4-2.4-6.4-6.92-4.94-26.78-19.59-26.78-19.59-2.8-2-10.39-7.2-12-8.39a1.7,1.7,0,0,0-1-.37Z" transform="translate(-36.69 -44.32)"/></g><g class="cls-4"><path class="cls-7" d="M131.47,188.77l4.52,3.14c2.15,1.49,4.37,3,5.58,3.9.2.15,20,14.71,26.81,19.61a16,16,0,0,1,3.09,2.6c-.21.18-.49.39-.72.56-9.42,7.06-24.5,16.6-24.61,16.67-1.73,1-4.87,3.09-8.18,5.26-2,1.32-4.45,2.91-6.31,4.1.54-.89,1.21-2,2-3.4L148,219.28l.68-1-.63-1.07-15.55-26.32-.73-1.45-.32-.63m-1.74-3.34a1.43,1.43,0,0,0-1,.37c-.8.79,0,2,2,6l15.59,26.38-14.39,22c-4,6.8-4.4,6.8-4,7.6a1.07,1.07,0,0,0,1,.51,2,2,0,0,0,.63-.11c1.25-.42,13.59-8.79,17.59-11.19,0,0,15.19-9.59,24.78-16.79,2-1.54,3.2-2.4-2.4-6.4-6.92-4.94-26.78-19.59-26.78-19.59-2.8-2-10.39-7.2-12-8.39a1.7,1.7,0,0,0-1-.37Z" transform="translate(-36.69 -44.32)"/></g><path class="cls-7" d="M101.49,188.77l4.52,3.14c2.15,1.49,4.37,3,5.58,3.9.2.15,20,14.71,26.81,19.61a16,16,0,0,1,3.09,2.6c-.21.18-.49.39-.72.56-9.42,7.06-24.5,16.6-24.61,16.67-1.73,1-4.87,3.09-8.18,5.26-2,1.32-4.45,2.91-6.31,4.1.54-.89,1.21-2,2-3.4L118,219.28l.68-1-.63-1.07-15.55-26.32-.73-1.45-.32-.63m-1.74-3.34a1.43,1.43,0,0,0-1,.37c-.8.79,0,2,2,6l15.59,26.38-14.39,22c-4,6.8-4.4,6.8-4,7.6a1.07,1.07,0,0,0,1,.51,2,2,0,0,0,.63-.11c1.25-.42,13.59-8.79,17.59-11.19,0,0,15.19-9.59,24.78-16.79,2-1.54,3.2-2.4-2.4-6.4-6.92-4.94-26.78-19.59-26.78-19.59-2.8-2-10.39-7.2-12-8.39a1.7,1.7,0,0,0-1-.37Z" transform="translate(-36.69 -44.32)"/><g class="cls-5"><path class="cls-7" d="M70.7,188.77l4.52,3.14c2.15,1.49,4.37,3,5.58,3.9.2.15,20,14.71,26.81,19.61a16,16,0,0,1,3.09,2.6c-.21.18-.49.39-.72.56-9.42,7.06-24.5,16.6-24.61,16.67-1.73,1-4.87,3.09-8.18,5.26-2,1.32-4.45,2.91-6.31,4.1.54-.89,1.21-2,2-3.4l14.36-21.95.68-1-.63-1.07L71.75,190.85,71,189.4l-.32-.63M69,185.43a1.43,1.43,0,0,0-1,.37c-.8.79,0,2,2,6l15.59,26.38-14.39,22c-4,6.8-4.4,6.8-4,7.6a1.07,1.07,0,0,0,1,.51,2,2,0,0,0,.63-.11c1.25-.42,13.59-8.79,17.59-11.19,0,0,15.19-9.59,24.78-16.79,2-1.54,3.2-2.4-2.4-6.4C101.86,208.85,82,194.2,82,194.2c-2.8-2-10.39-7.2-12-8.39a1.7,1.7,0,0,0-1-.37Z" transform="translate(-36.69 -44.32)"/></g><g class="cls-4"><path class="cls-7" d="M40.32,188.77l4.52,3.14c2.15,1.49,4.37,3,5.58,3.9.2.15,20,14.71,26.81,19.61a16,16,0,0,1,3.09,2.6c-.21.18-.49.39-.72.56-9.42,7.06-24.5,16.6-24.61,16.67-1.73,1-4.87,3.09-8.18,5.26-2,1.32-4.45,2.91-6.31,4.1.54-.89,1.21-2,2-3.4l14.36-21.95.68-1-.63-1.07L41.37,190.85l-.73-1.45-.32-.63m-1.74-3.34a1.43,1.43,0,0,0-1,.37c-.8.79,0,2,2,6l15.59,26.38-14.39,22c-4,6.8-4.4,6.8-4,7.6a1.07,1.07,0,0,0,1,.51,2,2,0,0,0,.63-.11C39.67,247.75,52,239.37,56,237c0,0,15.19-9.59,24.78-16.79,2-1.54,3.2-2.4-2.4-6.4-6.92-4.94-26.78-19.59-26.78-19.59-2.8-2-10.39-7.2-12-8.39a1.7,1.7,0,0,0-1-.37Z" transform="translate(-36.69 -44.32)"/></g></svg>