<?xml version="1.0" encoding="utf-8"?>
<!-- Generator: Adobe Illustrator 21.1.0, SVG Export Plug-In . SVG Version: 6.00 Build 0)  -->
<svg version="1.1" id="Connected" xmlns="http://www.w3.org/2000/svg" xmlns:xlink="http://www.w3.org/1999/xlink" x="0px" y="0px"
	 viewBox="0 0 164 58" style="enable-background:new 0 0 164 58;fill:currentColor;stroke:currentColor;" xml:space="preserve">
<style type="text/css">
	.st0{fill:#999999;}
</style>
<title>Connected</title>
<path class="st0" d="M78,0h-6c-1.1,0-1-0.1-1,0.9V6H41.5c-6.6,0-9,0.4-9,6.4v12.4H32v7.4h0.5v13.3c0,6.1,1.4,6.4,8,6.4H71v4.1
	c0,1-0.1,1.8,1,1.8h6c1.1,0,1,0.1,1-0.9V0.9C79-0.1,79.1,0,78,0z"/>
<path class="st0" d="M84.5,0h6.1c1.1,0,1-0.1,1,0.9V6h33.8c6.7,0,7.1,1.3,7.1,7.4v11.5h0.5v7.4h-0.5v12.4c0,6.1-0.4,7.4-7.1,7.4
	H91.6v5.1c0,1,0.1,0.9-1,0.9h-6.1c-1.1,0-1,0.1-1-0.9V0.9C83.5-0.1,83.4,0,84.5,0z"/>
<rect x="80" y="13" class="st0" width="4" height="7"/>
<rect x="80" y="38" class="st0" width="4" height="7"/>
<rect x="134" y="25" class="st0" width="30" height="7"/>
<rect y="25" class="st0" width="31" height="7"/>
</svg>
