<svg id="Layer_1" data-name="Layer 1" xmlns="http://www.w3.org/2000/svg" viewBox="-60 600 260 195"><defs><style>.cls-1{fill:#b6b6b6;}.cls-2{font-size:24px;font-family:MyriadPro-Regular, Myriad Pro;}.cls-3{letter-spacing:-0.01em;}.cls-4{letter-spacing:0em;}.cls-5{letter-spacing:-0.05em;}.cls-6{letter-spacing:0em;}</style></defs><title>running_idle_failed</title><path class="cls-1" d="M127.16,161.78,74.3,222.54c-3,3.39-5.82,6.87-8.87,10.17-4,4.33-9.83,4.81-13.8,1.3s-4.36-9.28-.41-13.83c24.35-28.07,48.94-55.93,73.08-84.18,11.13-13,21.43-26.75,32.53-40.7l-14.47-6.86c-2.32,6.48-4.53,12.65-6.75,18.82-1.13,3.13-2.16,6.3-3.43,9.37-2.19,5.29-7.21,7.68-12.08,5.91a9.44,9.44,0,0,1-5.73-12.23c2.6-7.9,5.54-15.68,8.34-23.52,1.73-4.86,3.31-9.78,5.22-14.56,2.29-5.73,7.37-7.95,13-5.38Q161.36,76.19,181.57,86c5,2.42,7.34,7,8.19,12.4,1.53,9.69,3,19.39,4.62,29.68,5.72-2.56,11.15-5,16.55-7.42,6.82-3.1,13.55-6.39,20.43-9.32,5.23-2.23,10.4-.19,12.65,4.59s.51,10.14-4.7,12.58q-24,11.22-48.11,22c-6.43,2.86-12.12-.27-13.57-7.19-1.09-5.2-1.78-10.48-2.83-16.84L151.53,156c9.1,6.67,18,13.09,26.71,19.65a18,18,0,0,1,5.09,5.3,8.83,8.83,0,0,1-4.18,12.3q-29.51,14.07-59.23,27.7a9.2,9.2,0,0,1-12.47-4.91c-2-4.9-.16-9.94,5.12-12.48,11.85-5.69,23.8-11.16,35.7-16.73,2.36-1.1,4.68-2.29,7.82-3.82Z" transform="translate(-48.42 -43.79)"/><path class="cls-1" d="M201.15,89.2A22.7,22.7,0,1,1,224,66.5,22.61,22.61,0,0,1,201.15,89.2Z" transform="translate(-48.42 -43.79)"/><path class="cls-1" d="M225.59,307.53l13.28,4-8.48,15-8.72-1.49c-1.32,10.57,6.05,24.33,14.92,28.63,9.28,4.49,18.5,9.1,27.75,13.66.59.29,1.22.83,1.79.78,8.72-.79,17.48-1.47,27.06-7.68l-13.64-11.67,5.75-17c7.83,5.49,15.85,11.29,20.87,20.18,5.23,9.24,3.12,19.57-6.37,24.55-7.35,3.85-15.76,6-23.94,7.83-5.41,1.23-10.26,2.45-14.86,6-16.89,13-31.38,28.27-44.62,44.86-6.82,8.55-13.69,9.39-23,3.63-25.89-16-54.31-21-84.28-18.68-6,.46-11.88,1.49-17.8,2.33-8.58,1.2-15.48-3.07-16.72-10.4-1.4-8.26,3.35-14.89,12.18-16.43,32-5.57,63.57-4.15,94.42,6.93a8.48,8.48,0,0,0,6.63-1c16.21-11,22.63-27.26,23.71-46.12.1-1.71-.74-3.5-1.29-5.21-1.92-6-4.46-11.86-5.74-18-2.84-13.54,1.28-20.37,14.09-24.8Z" transform="translate(-48.42 -43.79)"/><path class="cls-1" d="M261.59,307.53c9.1,2.67,16.1,7.63,19.15,17.12a24.37,24.37,0,1,1-46.65,14.13c-3.73-12.59,3.74-26.44,16.26-30.17,1.09-.32,2.15-.72,3.23-1.08Z" transform="translate(-48.42 -43.79)"/><path class="cls-1" d="M113.35,423.1c.19,2.12.41,3.41.41,4.7,0,17,0,34,0,51,0,3.58-.72,5.95-4.42,7.92-6.78,3.61-6.55,4-14,3.66l.39-1.19c-2-.86-3.88-2.36-5.87-2.47a169.71,169.71,0,0,0-18,0c-1.84.1-3.61,1.54-5.42,2.36l.38,1.31H56a52,52,0,0,1-4.66-4.53c-1.16-1.44-2.71-3.2-2.73-4.84-.2-18.15-.11-36.3-.16-54.45,0-3.49,1.83-5.47,5.05-5.59,6.82-.25,13.65-.12,20.47-.08a3.61,3.61,0,0,1,2.26.79c5.83,5.45,12.62,4.84,19.72,3.57C101.58,424.23,107.33,423.82,113.35,423.1Z" transform="translate(-48.42 -43.79)"/><path class="cls-1" d="M155.7,456.54l-8.06,12.75-10.11-6.06c6.85-11.12,13.47-22.06,20.37-32.81.73-1.13,3.54-2.08,4.74-1.58,9.91,4.19,20,8.12,29.37,13.36,10.2,5.71,18.61,4.7,26.46-4.11,10.5-11.78,21.42-23.19,32.18-34.73a5.7,5.7,0,0,1,2.74-1.58c-22.57,30.32-41.38,62.72-55.49,98.5l-10.33-6.08,5.88-14.3Zm49.53-1-35.51-21.9L159,451,196.17,474Z" transform="translate(-48.42 -43.79)"/><path class="cls-1" d="M72.83,399.14c-1.66-7.24,2.31-14.23,10.41-15.35,32.51-4.51,64.06-1.14,94.17,12.61a12.06,12.06,0,0,1,1.42,1.12c-1.64-.17-2.61-.19-3.55-.38s-1.92-.52-2.88-.81c-29-8.71-58.38-9.06-87.88-3.44C80.42,393.68,76.8,396.95,72.83,399.14Z" transform="translate(-48.42 -43.79)"/><path class="cls-1" d="M152.27,664.33c1.31,0,1.2.41,3.93.29a7.74,7.74,0,0,1,2.46-.17,59.55,59.55,0,0,1,11.91,5c-3.26,9.12-14.33,26-19.59,33.9-4.94,7.45-9.36,15.25-13.93,22.95-2.38,4-6.21,8.2-5.52,9.48,14.28,20,33.7,44,47.79,64.17,0,.67.22.83.22,1.5-2.16,3.09-1.57,3.36-1.64,3.66-2.46,11.15-1.68,10-11.87,13.67a40,40,0,0,1-5,1.25c-2,0-6.78-.75-8.75-.75a49.63,49.63,0,0,1-4.5-3.25c-6.25-6-4.66-4.28-10.25-12.5-2.18-4.31-5-7.85-7.5-12S125,783,122,779c-8-14.75-6.78-13.53-8.5-10.75-2.07,3.35-13.88,24.67-17,27-9,6.75-16.19,11.52-27.37,13.93-8.42,1.81-18.8-6.58-20.59-11.88-.44-.67.46-1,3.29-3.92,9.6-9.6,22-23.34,30.22-35.16,7.6-9.51,13.31-18.35,13-18.75-6.15-7.93-21.1-28.25-27.5-36-4.92-6-10.84-14.12-11.5-16.25,0-1.56-2.5-4.44-2.5-6,2.07-6.65-1.41-4.16,4.25-7.83,3.39-2.2,10.5-6.18,13.95-8.28,3-1.86,5.14-.8,8.15,1.17,3.79,5.56,14,20.42,18,25.87,2.57,3.52,10.81,16.59,13.82,20.49,4.09-6,9-15.7,12.87-20.92,8.17-11,13.22-22.93,16.25-24C147.63,665.33,145.6,667.27,152.27,664.33Z" transform="translate(-48.42 -43.79)"/><text class="cls-2" transform="translate(369.09 38.21)"><tspan xml:space="preserve">Running:  G</tspan><tspan class="cls-3" x="115.77" y="0">r</tspan><tspan class="cls-4" x="123.38" y="0">een</tspan></text><text class="cls-2" transform="translate(369.09 364.72)">Idle: Blue</text><text class="cls-2" transform="translate(369.09 691.24)"><tspan class="cls-5">F</tspan><tspan x="10.61" y="0">ailed: </tspan><tspan class="cls-6" x="69.07" y="0">R</tspan><tspan class="cls-4" x="82.08" y="0">ed</tspan></text></svg>