<svg id="Layer_1" data-name="Layer 1" xmlns="http://www.w3.org/2000/svg" viewBox="0 0 172.5 161.53" style="color:#999;"><defs><style>.cls-1,.cls-3,.cls-4,.cls-7{fill:none;}.cls-1,.cls-3,.cls-4,.cls-5,.cls-7{stroke:#4d4d4d;}.cls-1,.cls-3,.cls-4,.cls-5,.cls-6,.cls-7{stroke-miterlimit:10;}.cls-2,.cls-6{fill:#4d4d4d;}.cls-3{stroke-width:0.5px;}.cls-4{stroke-width:0.25px;}.cls-5{fill:currentColor;}.cls-5,.cls-6,.cls-7{stroke-width:3px;}.cls-6{stroke:currentColor;}</style></defs><title>InternalLocatelIconWithBorder</title><line class="cls-1" x1="44.01" y1="84.6" x2="131.78" y2="84.6"/><line class="cls-1" x1="44.01" y1="84.6" x2="1.77" y2="143.85"/><line class="cls-1" x1="131.78" y1="84.6" x2="170.18" y2="142.2"/><line class="cls-1" x1="44.01" y1="84.6" x2="44.01" y2="5.61"/><line class="cls-1" x1="131.78" y1="84.6" x2="131.78" y2="5.61"/><ellipse class="cls-2" cx="88.17" cy="116.42" rx="9.6" ry="2.74"/><ellipse class="cls-1" cx="88.17" cy="116.81" rx="13.99" ry="4"/><ellipse class="cls-3" cx="88.58" cy="117.09" rx="18.79" ry="5.37"/><ellipse class="cls-4" cx="88.31" cy="117.87" rx="25.64" ry="7.33"/><path class="cls-5" d="M164.58,100.41c1.8,20.2-11.65,29.56-17.1,39.62-5.88,10.85-8.24,19.59-8.13,19.59.37,0-1.5-7.17-7.41-20.3-4.94-11-18.89-18.49-17.82-37.26.81-14.3,10.14-25.82,25.78-26.09C153.83,75.72,163.21,85,164.58,100.41Z" transform="translate(-52 -43.47)"/><circle class="cls-6" cx="87.9" cy="56.08" r="11.79"/><rect class="cls-7" x="1.5" y="1.5" width="169.5" height="158.53" rx="6.58" ry="6.58"/></svg>