<svg id="Layer_1" data-name="Layer 1" xmlns="http://www.w3.org/2000/svg" viewBox="0 0 190.83 155.41" style="color:#999;"><defs><style>.cls-1,.cls-3,.cls-4{fill:none;}.cls-1,.cls-3,.cls-4,.cls-5{stroke:#4d4d4d;}.cls-1,.cls-3,.cls-4,.cls-5,.cls-6{stroke-miterlimit:10;}.cls-2,.cls-6{fill:#4d4d4d;}.cls-3{stroke-width:0.5px;}.cls-4{stroke-width:0.25px;}.cls-5{fill:currentColor;}.cls-5,.cls-6{stroke-width:3px;}.cls-6{stroke:currentColor;}</style></defs><title>InternalLocatelIconNoBorder</title><line class="cls-1" x1="48.51" y1="86.58" x2="144.71" y2="86.58"/><line class="cls-1" x1="48.51" y1="86.58" x2="0.41" y2="155.13"/><line class="cls-1" x1="144.71" y1="86.58" x2="190.41" y2="155.13"/><line class="cls-1" x1="48.51" y1="86.58" x2="48.51"/><line class="cls-1" x1="144.71" y1="86.58" x2="144.71"/><ellipse class="cls-2" cx="96.91" cy="121.46" rx="10.52" ry="3.01"/><ellipse class="cls-1" cx="96.91" cy="121.89" rx="15.33" ry="4.38"/><ellipse class="cls-3" cx="97.36" cy="122.19" rx="20.59" ry="5.88"/><ellipse class="cls-4" cx="97.06" cy="123.04" rx="28.11" ry="8.03"/><path class="cls-5" d="M148.26,125.42c2,22.14-12.77,32.4-18.74,43.42-6.45,11.89-9,21.47-8.91,21.47.4,0-1.65-7.86-8.12-22.25-5.41-12-20.7-20.27-19.53-40.85.89-15.67,10.51-28.3,27.65-28.6C135.88,98.36,146.76,108.55,148.26,125.42Z" transform="translate(-24.59 -69.16)"/><circle class="cls-6" cx="96.61" cy="55.32" r="12.93"/></svg>