<svg id="SiteIcon" data-name="Layer 1" xmlns="http://www.w3.org/2000/svg" viewBox="86 56 118 134">
    <g>
        <path d="M159.9,190.3h-72.1c-0.4,0-0.8-0.4-0.8-0.9l6.6-15.6c0-0.5,0.3-0.9,0.8-0.9h58.8c0.4,0,0.8,0.4,0.8,0.9
			l6.8,15.6C160.6,189.9,160.3,190.3,159.9,190.3z"/>
        <path d="M168.1,146.5l-24.8-24l-25.9-25.1c-0.7-0.6-0.6-1-0.8-0.4c0,0-2,3-1.9,4.9c0,0.6,0.4,2,1.9,3.4
			c0,0,3.1,2.8,2.8,4.2c-1.4,5.6-6.5,14.4-6.5,14.4c-1.5,2.8-0.5,5.2,0.5,6.3l1.3,1.3l-1.1,3.2c-0.3,1.2-0.5,1.5,0.1,2l6.4,6.2h-0.4
			l-6.6,28.3h19.5l-3.6-19.8l2.3,2.2c0.5,0.5,0.8,0.4,1.9-0.1l3-1.5l1.3,1.3c1,1,4.1,1.5,6.7-0.2c0,0,7.6-6,11.8-7.5
			c1.3-0.5,4.8,2.3,4.8,2.3c1.4,1.4,2.6,1.7,3.2,1.6c1.5-0.1,4.4-2.3,4.4-2.3C168.8,147.1,168.8,147.1,168.1,146.5z"/>
        <polygon points="161.7,96.1 165.7,100.1 147.5,126.1 138.9,117.7 		"/>
        <polygon points="165.2,91.9 169.3,96 166,99.7 161.9,95.7 		"/>
        <line x1="468.8" y1="496.1" x2="465.2" y2="544.8"/>
        <line x1="465.2" y1="492.6" x2="419.2" y2="500"/>
        <path stroke="var(--arc-color,#000)" fill="none" d="M138.8,66.4c0.7,0.7,1.2,1.2,1.8,1.9c8.9-7.8,19.2-11,30.8-8.9c8.6,1.6,15.9,6,21.5,13.1
			c6.5,8.2,9.4,17.7,8.5,28.3c-0.9,10.6-5.4,19.3-13,26.2c0.5,0.7,1,1.3,1.5,2.1c10.4-9.8,15.4-21.8,13.8-36.2
			c-1.9-16.8-10.7-28.5-25.9-34.2C163.6,53.2,150.6,56.4,138.8,66.4z"/>
        <path stroke="var(--arc-color,#000)" fill="none" d="M181.4,118.3c0.5,0.7,1,1.3,1.5,2.1c7.6-7.1,11.3-15.8,10.2-26.3c-1.3-12.2-7.7-20.7-18.6-24.9
			c-10.4-4-20-1.7-28.7,5.7c0.6,0.7,1.2,1.2,1.8,1.9c6.2-5.6,13.5-7.9,21.7-6.4c6.2,1.1,11.4,4.2,15.4,9.2
			c4.7,5.8,6.7,12.6,6.1,20.1C190.1,107.2,186.9,113.4,181.4,118.3z"/>
        <path stroke="var(--arc-color,#000)" fill="none" d="M153.7,84.6c0.6,0.6,1.1,1.2,1.7,1.8c3.7-3.3,7.9-4.5,12.7-3.3c3.2,0.8,5.8,2.7,7.8,5.4
			c3.6,4.9,4.5,14.1-2.4,20.4c0.5,0.6,1,1.2,1.5,1.9c4.6-4.1,6.6-9.1,6-15.2c-0.7-6.9-4.2-11.8-10.4-14.3
			C164.6,78.8,158.9,80,153.7,84.6z"/>
    </g>
</svg>