<svg id="SOCIcon" data-name="Layer 1" xmlns="http://www.w3.org/2000/svg" viewBox="0 0 494.21 546"><defs><style>.cls-1{fill:transparent;}.cls-2,.cls-3,.cls-4{fill:none;stroke:currentColor;stroke-miterlimit:5;}.cls-2{stroke-width:5px;}.cls-3{stroke-width:6px;}.cls-4{stroke-width:4px;}</style></defs><title>SOCicon2</title><path class="cls-1" d="M391.91,241.82c-45.49,0-94.79-1.74-146.57-5.17A184.07,184.07,0,0,1,422.5,102.5a182.23,182.23,0,0,1,112.31,38.25A185.34,185.34,0,0,1,599,234.31c-64.19,3.75-122.72,6.17-174,7.19-10.71.21-21.82.32-33,.32Z" transform="translate(-175.4 -100)"/><path d="M422.5,105A181.65,181.65,0,0,1,595.66,232c-62.92,3.65-120.34,6-170.76,7-10.69.21-21.79.32-33,.32-44.53,0-92.71-1.67-143.3-5A181.58,181.58,0,0,1,422.5,105m0-5A186.57,186.57,0,0,0,242.13,238.95c44,3,96.26,5.38,149.78,5.38q16.5,0,33.09-.32c60.21-1.2,123-4.18,177.24-7.38A186.57,186.57,0,0,0,422.5,100Z" transform="translate(-175.4 -100)"/><line class="cls-2" x1="247.1" y1="0.5" x2="250.1" y2="142.5"/><path class="cls-2" d="M303.5,241.5c.28-.57,1-46,42-87a317.75,317.75,0,0,1,27-24c28-22,50-27,50-27" transform="translate(-175.4 -100)"/><path class="cls-2" d="M541.5,238.5c-.28-.57-1-44-42-85a317.75,317.75,0,0,0-27-24c-28-22-50-27-50-27" transform="translate(-175.4 -100)"/><path class="cls-2" d="M303.5,241.5c.28-.57,1-46,42-87" transform="translate(-175.4 -100)"/><path class="cls-2" d="M281,172.5s48.5,19,143.5,19c98,0,142.5-19,142.5-19" transform="translate(-175.4 -100)"/><path class="cls-3" d="M511.5,324.5h-180v-84s47,1,93,1c56,0,87-2,87-2Z" transform="translate(-175.4 -100)"/><polygon class="cls-3" points="485.1 224.5 344.1 224.5 344.1 139.5 474.1 132.5 485.1 224.5"/><polygon class="cls-3" points="6.1 225.5 147.1 225.5 147.1 140.5 17.1 133.5 6.1 225.5"/><polygon class="cls-3" points="149.1 324.5 3.1 324.5 6.1 235.5 149.1 235.5 149.1 324.5"/><polygon class="cls-3" points="345.1 324.5 491.1 324.5 488.1 235.5 345.1 235.5 345.1 324.5"/><rect class="cls-3" x="157.1" y="235.5" width="180" height="89"/><path fill="currentColor" d="M262,488l-10,.91L240,490c-24,3-24,2-24,2V442c0-14.3,13-16,26-21h18c14,3,26,1.7,26,16v49S275,487,262,488Z" transform="translate(-175.4 -100)"/><circle fill="currentColor" cx="75.1" cy="299.5" r="23.5"/><path fill="currentColor" d="M583,489l22,2c24,3,24,2,24,2V443c0-14.3-13-16-26-21H585c-14,3-26,1.7-26,16v49S570,488,583,489Z" transform="translate(-175.4 -100)"/><circle fill="currentColor" cx="419.1" cy="300.5" r="23.5"/><path fill="currentColor" d="M415,485h46V436c0-14.3-13-16-26-21H417c-14,6-26,7.7-26,22v48Z" transform="translate(-175.4 -100)"/><circle fill="currentColor" cx="251.1" cy="293.5" r="23.5"/><rect class="cls-4" x="110.6" y="519" width="273" height="25"/><circle class="cls-4" cx="108.1" cy="421.5" r="17"/><circle class="cls-4" cx="253.6" cy="422" r="17"/><line class="cls-2" x1="123.1" y1="429.5" x2="149.1" y2="446.5"/><line class="cls-2" x1="149.1" y1="518.5" x2="148.1" y2="444.5"/><line class="cls-2" x1="255.6" y1="519" x2="253.6" y2="439"/><circle class="cls-4" cx="389.1" cy="421.5" r="17"/><line class="cls-2" x1="374.1" y1="429.5" x2="348.1" y2="446.5"/><line class="cls-2" x1="348.1" y1="518.5" x2="349.1" y2="444.5"/></svg>