<?xml version="1.0" encoding="utf-8"?>
<!-- Generator: Adobe Illustrator 21.1.0, SVG Export Plug-In . SVG Version: 6.00 Build 0)  -->
<svg version="1.1" id="Layer_1" xmlns="http://www.w3.org/2000/svg" xmlns:xlink="http://www.w3.org/1999/xlink" x="0px" y="0px"
	 viewBox="73 102 156 225" style="enable-background:new 0 0 316 462;fill:none;" xml:space="preserve">
<style type="text/css">
	.st0{fill:none;stroke:#1A1A1A;stroke-width:4;stroke-miterlimit:10;}
	.st1{fill:none;stroke:#000000;stroke-width:13;stroke-miterlimit:10;}
	.st2{fill:none;stroke:#000000;stroke-width:13;stroke-miterlimit:10;}
</style>
<g stroke="var(--tower-color,#1a1a1a)" stroke-width="4">
	<polygon class="st0" points="125.1,248 176.3,248 169,231 132.3,231 	"/>
	<polygon class="st0" points="150.7,187.8 138.7,216 162.7,216 	"/>
	<polygon class="st0" points="118.7,263 112.8,277 188.6,277 182.6,263 	"/>
	<path class="st0" d="M215.7,301.4l-55.3-121c1.4-2.1,2.2-4.6,2.2-7.3c0-7.2-5.6-13-12.6-13s-12.6,5.8-12.6,13
		c0,3.6,1.5,6.9,3.8,9.3L128,212l0,0l-4,9l-36.4,79.8c0,0-3.8,10.3-2.2,16.2c0.8,3.1,8,5.5,8,5.5l13-30.5H195l13.5,31.7
		c0,0,8-2.8,9-5.9C219.4,311.7,215.7,301.4,215.7,301.4z M176.3,248h-51.2l7.2-17H169L176.3,248z M150.7,187.8l12,28.2h-24
		L150.7,187.8z M112.8,277l6-14h63.9l6,14H112.8z"/>
</g>
<path stroke="var(--inner-color, #000)" stroke-width="13" class="st2" d="M181,216.1c6.4-3.2,16.7-20.3,15.9-35.5c-1.4-26.3-19.7-46-45.1-46s-46,19.5-46.4,45.8
	c-0.9,18,9.9,31.5,16.6,35.1"/>
<path stroke="var(--outer-color, #000)" stroke-width="13" class="st1" d="M191.3,238.1c18.4-9.2,30.8-35.3,29.7-58.2c-2-39.5-30.5-70-68.7-70s-70,30.3-70.7,69.8
	c-1.4,27.1,17,52.8,29.7,58.5"/>
<path stroke="var(--outer-color, #000)" stroke-width="13" class="st1" d="M191.3,238.1c18.4-9.2,30.8-35.3,29.7-58.2c-2-39.5-30.5-70-68.7-70s-70,30.3-70.7,69.8
	c-1.4,27.1,13,50.8,29.7,58.5"/>
</svg>
